<?xml version="1.0" encoding="utf-8"?>
<!-- Generator: Adobe Illustrator 16.0.0, SVG Export Plug-In . SVG Version: 6.00 Build 0)  -->
<!DOCTYPE svg PUBLIC "-//W3C//DTD SVG 1.1//EN" "http://www.w3.org/Graphics/SVG/1.1/DTD/svg11.dtd">
<svg version="1.1" id="Layer_1" xmlns="http://www.w3.org/2000/svg" xmlns:xlink="http://www.w3.org/1999/xlink" x="0px" y="0px"
	 width="275.86px" height="106.046px" viewBox="0 0 275.86 106.046" enable-background="new 0 0 275.86 106.046"
	 xml:space="preserve">
<g>
	<polygon fill="#3F3E40" points="22.083,32.217 25.492,32.217 25.492,69.639 26.984,71.045 31.673,71.472 31.673,74.628 
		12.066,74.628 12.066,71.472 16.668,71.045 18.162,69.639 18.162,38.055 12.066,38.055 12.066,35.327 	"/>
	<path fill="#00837B" d="M18.046,10.196c1.421,0,2.621,0.498,3.602,1.493s1.471,2.187,1.471,3.581c0,1.391-0.49,2.571-1.471,3.537
		c-0.981,0.966-2.181,1.449-3.602,1.449c-1.392,0-2.578-0.483-3.559-1.449c-0.979-0.966-1.471-2.146-1.471-3.537
		c0-1.422,0.491-2.622,1.471-3.603C15.468,10.686,16.654,10.196,18.046,10.196z"/>
	<path fill="#3F3E40" d="M36.02,74.628v-3.156l4.73-0.427l1.493-1.406V38.055H36.02v-2.728l10.145-3.11h3.323v4.772
		c3.495-1.931,6.311-3.287,8.441-4.069c2.131-0.784,4.006-1.172,5.626-1.172c3.808,0,6.72,1.137,8.739,3.409
		c2.018,2.274,3.026,5.57,3.026,9.889v24.593l1.492,1.406l4.688,0.427v3.156H62.403v-3.156l4.178-0.427l1.491-1.406V46.538
		c0-3.267-0.675-5.585-2.024-6.948c-1.351-1.364-3.616-2.045-6.798-2.045c-1.393,0-2.899,0.236-4.519,0.704
		c-1.62,0.468-3.367,1.187-5.244,2.151v29.24l1.493,1.406l4.178,0.427v3.156H36.02z"/>
	<polygon fill="#3F3E40" points="96.079,32.217 99.487,32.217 99.487,69.639 100.979,71.045 105.667,71.472 105.667,74.628 
		86.061,74.628 86.061,71.472 90.664,71.045 92.156,69.639 92.156,38.055 86.061,38.055 86.061,35.327 	"/>
	<path fill="#00837B" d="M92.042,10.196c1.42,0,2.621,0.498,3.602,1.493c0.98,0.995,1.47,2.187,1.47,3.581
		c0,1.391-0.49,2.571-1.47,3.537c-0.981,0.966-2.182,1.449-3.602,1.449c-1.393,0-2.578-0.483-3.56-1.449
		c-0.98-0.966-1.47-2.146-1.47-3.537c0-1.422,0.49-2.622,1.47-3.603C89.464,10.686,90.649,10.196,92.042,10.196z"/>
	<path fill="#3F3E40" d="M115.086,37.885h-5.498v-2.728l5.755-2.516l3.75-8.14h3.239v9.291h13.299v4.092h-13.299v23.016
		c0,3.78,0.527,6.316,1.577,7.609c1.05,1.294,2.941,1.938,5.668,1.938c0.938,0,1.912-0.056,2.92-0.171
		c1.008-0.111,2.052-0.297,3.133-0.553v3.24c-1.99,0.625-3.95,1.101-5.882,1.427c-1.933,0.326-3.792,0.49-5.583,0.49
		c-3.353,0-5.705-0.632-7.054-1.897c-1.35-1.264-2.025-3.572-2.025-6.926V37.885z"/>
	<polygon fill="#3F3E40" points="149.655,32.217 153.064,32.217 153.064,69.639 154.557,71.045 159.245,71.472 159.245,74.628 
		139.639,74.628 139.639,71.472 144.24,71.045 145.732,69.639 145.732,38.055 139.639,38.055 139.639,35.327 	"/>
	<path fill="#00837B" d="M145.619,10.196c1.42,0,2.621,0.498,3.602,1.493s1.471,2.187,1.471,3.581c0,1.391-0.49,2.571-1.471,3.537
		c-0.98,0.966-2.182,1.449-3.602,1.449c-1.394,0-2.578-0.483-3.559-1.449c-0.98-0.966-1.47-2.146-1.47-3.537
		c0-1.422,0.49-2.622,1.47-3.603C143.041,10.686,144.226,10.196,145.619,10.196z"/>
	<path fill="#3F3E40" d="M184.479,31.748c5.938,0,10.812,2.038,14.621,6.115c3.806,4.079,5.713,9.313,5.713,15.708
		c0,6.394-1.913,11.627-5.734,15.704c-3.823,4.081-8.689,6.117-14.6,6.117c-5.911,0-10.762-2.029-14.557-6.092
		c-3.792-4.065-5.689-9.306-5.689-15.729c0-6.421,1.881-11.665,5.648-15.728C173.646,33.781,178.513,31.748,184.479,31.748z
		 M184.479,35.498c-3.637,0-6.557,1.641-8.76,4.923c-2.201,3.283-3.303,7.665-3.303,13.15c0,5.484,1.109,9.866,3.325,13.149
		c2.216,3.282,5.129,4.921,8.737,4.921c3.665,0,6.609-1.631,8.824-4.899c2.216-3.268,3.324-7.657,3.324-13.171
		c0-5.455-1.116-9.832-3.347-13.127C191.05,37.146,188.114,35.498,184.479,35.498z"/>
	<g>
		<path fill="#00837B" d="M11.773,88.181h2.419c2.286,0,3.836,1.404,3.836,3.845c0,2.451-1.55,3.849-3.836,3.849h-2.419V88.181z
			 M14.114,95.435c2.046,0,3.419-1.199,3.419-3.409c0-2.199-1.373-3.409-3.419-3.409h-1.868v6.818H14.114z"/>
		<path fill="#00837B" d="M19.917,88.181h4.21v0.436H20.39v3.158h3.068v0.438H20.39v3.222h3.946v0.439h-4.419V88.181z"/>
		<path fill="#00837B" d="M25.939,94.687c0,0,0.78,0.856,2.055,0.856c0.956,0,1.715-0.593,1.715-1.515
			c0-2.19-3.936-1.585-3.936-3.992c0-1.022,0.912-1.99,2.309-1.99c1.253,0,1.957,0.715,1.957,0.715l-0.264,0.406
			c0,0-0.66-0.658-1.682-0.658c-1.143,0-1.825,0.769-1.825,1.518c0,2.033,3.936,1.407,3.936,3.978c0,1.111-0.858,2.002-2.232,2.002
			c-1.518,0-2.353-0.956-2.353-0.956L25.939,94.687z"/>
		<path fill="#00837B" d="M35.787,93.213h-3.265l-0.989,2.661h-0.506l2.88-7.693h0.505l2.88,7.693h-0.506L35.787,93.213z
			 M34.15,88.729c0,0-0.165,0.593-0.287,0.925l-1.176,3.118h2.935l-1.165-3.118c-0.122-0.332-0.286-0.925-0.286-0.925H34.15z"/>
		<path fill="#00837B" d="M38.676,88.181h2.254c0.715,0,1.077,0.075,1.385,0.229c0.638,0.319,1.067,0.969,1.067,1.846
			c0,1.101-0.637,1.925-1.54,2.125v0.019c0,0,0.078,0.088,0.176,0.276l1.726,3.199h-0.56l-1.825-3.406h-2.209v3.406h-0.473V88.181z
			 M41.238,92.026c1.011,0,1.648-0.724,1.648-1.771c0-0.68-0.34-1.231-0.901-1.482c-0.22-0.098-0.461-0.156-1.077-0.156h-1.759
			v3.409H41.238z"/>
		<path fill="#00837B" d="M45.5,88.181h2.254c0.715,0,1.078,0.075,1.385,0.229c0.638,0.319,1.067,0.969,1.067,1.846
			c0,1.101-0.638,1.925-1.54,2.125v0.019c0,0,0.076,0.088,0.176,0.276l1.726,3.199h-0.561l-1.824-3.406h-2.209v3.406H45.5V88.181z
			 M48.062,92.026c1.011,0,1.649-0.724,1.649-1.771c0-0.68-0.34-1.231-0.901-1.482c-0.221-0.098-0.462-0.156-1.078-0.156h-1.758
			v3.409H48.062z"/>
		<path fill="#00837B" d="M55.679,88.046c2.145,0,3.892,1.717,3.892,3.926c0,2.264-1.747,4.034-3.892,4.034
			c-2.144,0-3.892-1.771-3.892-4.034C51.787,89.763,53.535,88.046,55.679,88.046z M55.679,95.555c1.88,0,3.397-1.561,3.397-3.583
			c0-1.968-1.517-3.475-3.397-3.475c-1.879,0-3.396,1.507-3.396,3.475C52.283,93.995,53.8,95.555,55.679,95.555z"/>
		<path fill="#00837B" d="M61.403,88.181h0.473v7.254h3.671v0.439h-4.145V88.181z"/>
		<path fill="#00837B" d="M66.998,88.181h0.473v7.254h3.672v0.439h-4.145V88.181z"/>
		<path fill="#00837B" d="M75.526,88.046c2.144,0,3.892,1.717,3.892,3.926c0,2.264-1.748,4.034-3.892,4.034
			s-3.891-1.771-3.891-4.034C71.635,89.763,73.382,88.046,75.526,88.046z M75.526,95.555c1.88,0,3.396-1.561,3.396-3.583
			c0-1.968-1.516-3.475-3.396-3.475c-1.88,0-3.396,1.507-3.396,3.475C72.13,93.995,73.646,95.555,75.526,95.555z"/>
		<path fill="#00837B" d="M87.594,88.046c1.825,0,2.748,0.968,2.748,0.968l-0.286,0.352c0,0-0.912-0.868-2.451-0.868
			c-1.891,0-3.332,1.485-3.332,3.475c0,2,1.43,3.583,3.364,3.583c1.649,0,2.607-1.044,2.607-1.044l0.296,0.329
			c0,0-1.034,1.166-2.903,1.166c-2.242,0-3.858-1.803-3.858-4.034C83.779,89.739,85.428,88.046,87.594,88.046z"/>
		<path fill="#00837B" d="M92.361,88.181h2.253c0.716,0,1.079,0.075,1.386,0.229c0.638,0.319,1.066,0.969,1.066,1.846
			c0,1.101-0.638,1.925-1.538,2.125v0.019c0,0,0.076,0.088,0.176,0.276l1.725,3.199h-0.561l-1.826-3.406h-2.208v3.406h-0.474V88.181
			z M94.923,92.026c1.011,0,1.649-0.724,1.649-1.771c0-0.68-0.341-1.231-0.901-1.482c-0.22-0.098-0.462-0.156-1.077-0.156h-1.759
			v3.409H94.923z"/>
		<path fill="#00837B" d="M99.187,88.181h4.21v0.436H99.66v3.158h3.065v0.438H99.66v3.222h3.945v0.439h-4.418V88.181z"/>
		<path fill="#00837B" d="M109.231,93.213h-3.264l-0.989,2.661h-0.506l2.88-7.693h0.506l2.88,7.693h-0.506L109.231,93.213z
			 M107.594,88.729c0,0-0.165,0.593-0.285,0.925l-1.178,3.118h2.936l-1.166-3.118c-0.121-0.332-0.285-0.925-0.285-0.925H107.594z"/>
		<path fill="#00837B" d="M113.386,88.617h-2.869v-0.436h6.212v0.436h-2.871v7.258h-0.473V88.617z"/>
		<path fill="#00837B" d="M118,88.181h0.473v7.693H118V88.181z"/>
		<path fill="#00837B" d="M119.847,88.181h0.505l2.319,6.22c0.132,0.364,0.297,0.925,0.297,0.925h0.023c0,0,0.165-0.561,0.295-0.925
			l2.331-6.22h0.506l-2.88,7.693h-0.517L119.847,88.181z"/>
		<path fill="#00837B" d="M130.805,88.046c2.145,0,3.892,1.717,3.892,3.926c0,2.264-1.747,4.034-3.892,4.034
			c-2.143,0-3.89-1.771-3.89-4.034C126.915,89.763,128.662,88.046,130.805,88.046z M130.805,95.555c1.881,0,3.397-1.561,3.397-3.583
			c0-1.968-1.516-3.475-3.397-3.475c-1.879,0-3.396,1.507-3.396,3.475C127.409,93.995,128.926,95.555,130.805,95.555z"/>
		<path fill="#00837B" d="M139.575,88.181h2.418c2.286,0,3.836,1.404,3.836,3.845c0,2.451-1.551,3.849-3.836,3.849h-2.418V88.181z
			 M141.917,95.435c2.044,0,3.418-1.199,3.418-3.409c0-2.199-1.374-3.409-3.418-3.409h-1.869v6.818H141.917z"/>
		<path fill="#00837B" d="M147.719,88.181h4.209v0.436h-3.737v3.158h3.067v0.438h-3.067v3.222h3.947v0.439h-4.419V88.181z"/>
		<path fill="#00837B" d="M160.808,93.213h-3.265l-0.989,2.661h-0.506l2.88-7.693h0.506l2.881,7.693h-0.507L160.808,93.213z
			 M159.17,88.729c0,0-0.165,0.593-0.285,0.925l-1.176,3.118h2.934l-1.164-3.118c-0.122-0.332-0.286-0.925-0.286-0.925H159.17z"/>
		<path fill="#00837B" d="M163.696,88.181h2.529c1.342,0,2.341,0.843,2.341,2.24s-0.999,2.264-2.341,2.264h-2.056v3.189h-0.474
			V88.181z M166.203,92.249c1.121,0,1.87-0.671,1.87-1.827c0-1.153-0.749-1.805-1.87-1.805h-2.033v3.632H166.203z"/>
		<path fill="#00837B" d="M170.204,88.181h0.473v7.254h3.671v0.439h-4.144V88.181z"/>
		<path fill="#00837B" d="M175.797,88.181h0.473v7.693h-0.473V88.181z"/>
		<path fill="#00837B" d="M181.94,88.046c1.825,0,2.749,0.968,2.749,0.968l-0.287,0.352c0,0-0.911-0.868-2.45-0.868
			c-1.891,0-3.332,1.485-3.332,3.475c0,2,1.431,3.583,3.364,3.583c1.649,0,2.605-1.044,2.605-1.044l0.298,0.329
			c0,0-1.035,1.166-2.903,1.166c-2.241,0-3.856-1.803-3.856-4.034C178.128,89.739,179.775,88.046,181.94,88.046z"/>
		<path fill="#00837B" d="M190.48,93.213h-3.265l-0.989,2.661h-0.507l2.883-7.693h0.505l2.88,7.693h-0.508L190.48,93.213z
			 M188.843,88.729c0,0-0.165,0.593-0.285,0.925l-1.177,3.118h2.936l-1.165-3.118c-0.122-0.332-0.285-0.925-0.285-0.925H188.843z"/>
		<path fill="#00837B" d="M196.623,88.046c1.826,0,2.749,0.968,2.749,0.968l-0.286,0.352c0,0-0.912-0.868-2.452-0.868
			c-1.89,0-3.33,1.485-3.33,3.475c0,2,1.43,3.583,3.363,3.583c1.648,0,2.606-1.044,2.606-1.044l0.298,0.329
			c0,0-1.034,1.166-2.904,1.166c-2.241,0-3.858-1.803-3.858-4.034C192.809,89.739,194.457,88.046,196.623,88.046z"/>
		<path fill="#00837B" d="M201.393,88.181h0.473v7.693h-0.473V88.181z"/>
		<path fill="#00837B" d="M207.592,88.046c2.145,0,3.893,1.717,3.893,3.926c0,2.264-1.748,4.034-3.893,4.034
			c-2.144,0-3.892-1.771-3.892-4.034C203.7,89.763,205.448,88.046,207.592,88.046z M207.592,95.555c1.881,0,3.396-1.561,3.396-3.583
			c0-1.968-1.516-3.475-3.396-3.475c-1.88,0-3.397,1.507-3.397,3.475C204.194,93.995,205.712,95.555,207.592,95.555z"/>
		<path fill="#00837B" d="M213.316,88.181h0.44l4.385,6.033c0.255,0.353,0.627,0.968,0.627,0.968h0.022c0,0-0.057-0.583-0.057-0.968
			v-6.033h0.475v7.693h-0.44l-4.388-6.036c-0.25-0.352-0.624-0.968-0.624-0.968h-0.023c0,0,0.056,0.583,0.056,0.968v6.036h-0.473
			V88.181z"/>
		<path fill="#00837B" d="M221.58,88.181h4.212v0.436h-3.738v3.158h3.067v0.438h-3.067v3.222h3.947v0.439h-4.421V88.181z"/>
		<path fill="#00837B" d="M227.604,94.687c0,0,0.78,0.856,2.054,0.856c0.958,0,1.715-0.593,1.715-1.515
			c0-2.19-3.936-1.585-3.936-3.992c0-1.022,0.912-1.99,2.309-1.99c1.252,0,1.958,0.715,1.958,0.715l-0.264,0.406
			c0,0-0.66-0.658-1.684-0.658c-1.143,0-1.823,0.769-1.823,1.518c0,2.033,3.934,1.407,3.934,3.978c0,1.111-0.856,2.002-2.23,2.002
			c-1.517,0-2.352-0.956-2.352-0.956L227.604,94.687z"/>
	</g>
	<g>
		<path fill="#3F3E40" d="M220.645,71.216c-1.235-0.341-2.464-0.865-3.687-1.577l-1.067-7.416h-4.176v11.338
			c1.62,0.624,3.389,1.087,5.308,1.387c1.643,0.257,3.358,0.393,5.136,0.43l1.873-3.66
			C222.897,71.688,221.769,71.526,220.645,71.216z"/>
		<path fill="#3F3E40" d="M228.892,50.715c-0.937-0.427-1.634-0.753-2.087-0.981c-2.899-1.393-4.858-2.656-5.883-3.793
			c-1.023-1.137-1.533-2.515-1.533-4.135c0-1.988,0.64-3.538,1.916-4.646c1.28-1.107,3.056-1.663,5.329-1.663
			c1.051,0,2.103,0.157,3.155,0.468c1.05,0.315,2.158,0.783,3.324,1.407l0.682,6.182h4.304v-9.89
			c-1.477-0.623-3.062-1.102-4.751-1.428c-1.69-0.325-3.517-0.488-5.479-0.488c-4.915,0-8.724,1.064-11.423,3.196
			c-2.699,2.131-4.047,5.144-4.047,9.035c0,2.559,0.786,4.704,2.365,6.438c1.575,1.731,4.551,3.58,8.931,5.541
			c3.09,1.409,5.258,2.621,6.531,3.641l3.323-6.498C232.275,52.348,230.73,51.556,228.892,50.715z"/>
	</g>
	<g>
		<path fill="#00837B" d="M261.733,12.25h4.98l-34.896,63.062h-4.899L261.733,12.25z"/>
	</g>
</g>
<g>
</g>
<g>
</g>
<g>
</g>
<g>
</g>
<g>
</g>
<g>
</g>
</svg>
